<svg xmlns="http://www.w3.org/2000/svg" width="48" height="70.127" viewBox="0 0 48 70.127">
  <g id="Subtraction_1" data-name="Subtraction 1" fill="#d83e3e">
    <path d="M 23.9994010925293 69.62710571289062 C 22.47922134399414 69.62710571289062 20.95710182189941 69.48499298095703 19.4753303527832 69.20471954345703 C 14.19956111907959 68.2052001953125 9.388701438903809 65.43071746826172 5.929111003875732 61.39241790771484 C 4.209331035614014 59.38497543334961 2.868151187896729 57.13032531738281 1.942821264266968 54.69109725952148 C 0.9854412078857422 52.16738510131836 0.5000012516975403 49.51122665405273 0.5000012516975403 46.7963981628418 L 0.5000012516975403 46.68750762939453 L 0.5000012516975403 46.67432022094727 C 0.5008562803268433 46.63561248779297 0.5009012222290039 46.59854888916016 0.5009012222290039 46.56060791015625 L 0.5009012222290039 46.55757141113281 C 0.50128173828125 46.54090881347656 0.5015093684196472 46.5244140625 0.501721203327179 46.50801849365234 C 0.5019512176513672 46.48928833007812 0.5021412372589111 46.47370529174805 0.5025412440299988 46.45814514160156 L 0.5027012228965759 46.45177841186523 L 0.5027012228965759 46.44540786743164 L 0.5027012228965759 46.44068908691406 C 0.5034846067428589 46.40761947631836 0.5041324496269226 46.37822723388672 0.5043861865997314 46.34889984130859 L 0.5051112174987793 46.34160614013672 L 0.5053611993789673 46.31987762451172 C 0.5059412121772766 46.27118682861328 0.5073012113571167 46.22162628173828 0.5086512565612793 46.17232513427734 L 0.5106312036514282 46.09563827514648 C 0.6522212028503418 41.52060699462891 2.184161186218262 37.142578125 4.940761089324951 33.43735504150391 L 5.202311038970947 33.08579635620117 L 4.888111114501953 32.78037643432617 L 3.735688447952271 31.66016387939453 L 23.99940299987793 0.9087353944778442 L 31.8870906829834 12.87960624694824 L 44.26400375366211 31.66017532348633 L 43.11159133911133 32.78037643432617 L 42.7973518371582 33.08583831787109 L 43.05898284912109 33.43741607666016 C 45.8651008605957 37.20808792114258 47.39884185791016 41.66552734375 47.49441146850586 46.32785797119141 L 47.49697494506836 46.44011688232422 L 47.49701309204102 46.44707489013672 L 47.49703216552734 46.45199584960938 L 47.49715042114258 46.45691680908203 C 47.49755096435547 46.47290802001953 47.49774169921875 46.48889541625977 47.49794006347656 46.50498580932617 C 47.49819183349609 46.52476119995117 47.49841690063477 46.54211044311523 47.49880218505859 46.55934524536133 L 47.49880218505859 46.55970764160156 C 47.49880218505859 46.59762191772461 47.49884796142578 46.63553237915039 47.49970245361328 46.67429733276367 L 47.49970245361328 46.68750762939453 L 47.49970245361328 46.79549789428711 C 47.49970245361328 49.51096725463867 47.01425933837891 52.16742706298828 46.05686950683594 54.69108581542969 C 45.13153076171875 57.13031768798828 43.79032135009766 59.38496780395508 42.07048034667969 61.39240646362305 C 38.61077117919922 65.43071746826172 33.79964065551758 68.20518493652344 28.52333068847656 69.20475006103516 C 27.04170036315918 69.48499298095703 25.51958084106445 69.62710571289062 23.9994010925293 69.62710571289062 Z M 7.501902103424072 45.54137420654297 C 7.501094818115234 45.56761932373047 7.501001358032227 45.59384918212891 7.501001358032227 45.62009811401367 L 7.501001358032227 45.62550735473633 C 7.501001358032227 45.63450622558594 7.500801086425781 45.64332580566406 7.500631332397461 45.65206527709961 C 7.500341415405273 45.66741561889648 7.500101089477539 45.68198776245117 7.500101089477539 45.69659805297852 L 7.500101089477539 45.70919799804688 L 7.500101089477539 45.78030776977539 C 7.500101089477539 47.66820526123047 7.842221260070801 49.51525497436523 8.516951560974121 51.27013778686523 C 9.168460845947266 52.96463775634766 10.11226081848145 54.53033828735352 11.32213115692139 55.92373657226562 C 13.75130081176758 58.7214469909668 17.12777137756348 60.64323806762695 20.82954216003418 61.33509826660156 C 21.86576080322266 61.52884674072266 22.93227195739746 61.62709808349609 23.9994010925293 61.62709808349609 C 25.06653213500977 61.62709808349609 26.13304138183594 61.52884674072266 27.16930198669434 61.33508682250977 C 30.87140083312988 60.64326477050781 34.24814987182617 58.72147750854492 36.67745971679688 55.92374801635742 C 37.88737106323242 54.53035736083984 38.83119964599609 52.96465682983398 39.48273086547852 51.27013778686523 C 40.1574821472168 49.51523590087891 40.49959945678711 47.66849517822266 40.49959945678711 45.78120803833008 L 40.49959945678711 45.70919799804688 L 40.49959945678711 45.69659805297852 C 40.49959945678711 45.68236541748047 40.49936294555664 45.66786575317383 40.49909973144531 45.65337753295898 C 40.4988899230957 45.64296722412109 40.49870300292969 45.63414764404297 40.49870300292969 45.62550735473633 C 40.49870300292969 45.5947380065918 40.49859237670898 45.56747817993164 40.49779891967773 45.54138946533203 C 40.49775314331055 45.51222610473633 40.49684524536133 45.48305892944336 40.49581146240234 45.45388793945312 C 40.43058013916016 42.35986709594727 39.44340133666992 39.39664459228516 37.63586044311523 36.85524749755859 L 38.28557205200195 36.23218536376953 L 38.58806228637695 35.94210815429688 L 38.35528182983398 35.59359741210938 L 29.95198059082031 23.01249694824219 L 24.41519165039062 14.72260665893555 L 23.99939155578613 14.10005664825439 L 23.58361053466797 14.72260665893555 L 9.644411087036133 35.59360504150391 L 9.411651611328125 35.94211578369141 L 9.714131355285645 36.23218536376953 L 10.3638391494751 36.85524749755859 C 8.588878631591797 39.35089874267578 7.603085994720459 42.25917816162109 7.507551193237305 45.29477691650391 C 7.506950855255127 45.31186294555664 7.506442070007324 45.32914733886719 7.505996227264404 45.34652709960938 L 7.504281044006348 45.34999847412109 L 7.502851009368896 45.46348571777344 L 7.502391338348389 45.49994659423828 C 7.502139091491699 45.51321029663086 7.501915454864502 45.52727508544922 7.501902103424072 45.54137420654297 Z" stroke="none"/>
    <path d="M 23.9994010925293 69.12710571289062 C 25.48848152160645 69.12710571289062 26.97933197021484 68.98793029785156 28.43027114868164 68.71348571777344 C 33.59537124633789 67.73499298095703 38.30470275878906 65.01945495605469 41.69078063964844 61.06710815429688 C 43.37290954589844 59.10366821289062 44.68458938598633 56.89879608154297 45.58938217163086 54.51373672485352 C 46.52519989013672 52.04693603515625 46.99970245361328 49.45014572143555 46.99970245361328 46.79549789428711 L 46.99970245361328 46.67948532104492 C 46.99891662597656 46.64069366455078 46.99880981445312 46.60264205932617 46.99880218505859 46.56461715698242 C 46.99845886230469 46.54774856567383 46.99822235107422 46.530517578125 46.99797058105469 46.51102828979492 C 46.997802734375 46.49706649780273 46.99765014648438 46.48319625854492 46.99731063842773 46.46933746337891 L 46.99451065063477 46.33809661865234 C 46.90109252929688 41.7803955078125 45.4015007019043 37.42263793945312 42.65787124633789 33.73591613769531 L 42.13459014892578 33.03277587890625 L 43.6189079284668 31.58995056152344 L 23.9993782043457 1.817464232444763 L 4.380761623382568 31.58991813659668 L 5.865021228790283 33.03268814086914 L 5.341911315917969 33.73580551147461 C 2.646980285644531 37.358154296875 1.149183630943298 41.63753128051758 1.01037871837616 46.11177825927734 L 1.008461236953735 46.18591690063477 C 1.007191181182861 46.232666015625 1.005881190299988 46.27965545654297 1.00533127784729 46.32582855224609 L 1.004091024398804 46.37656021118164 C 1.003768920898438 46.39886093139648 1.003278970718384 46.42168807983398 1.002701282501221 46.44631576538086 L 1.002381205558777 46.47089767456055 C 1.002031207084656 46.48435592651367 1.001891255378723 46.49784851074219 1.001681208610535 46.51460647583008 C 1.001471042633057 46.53062057495117 1.00124204158783 46.54672622680664 1.000901103019714 46.56296539306641 C 1.000898003578186 46.60190582275391 1.000811696052551 46.64002990722656 1.000001192092896 46.67963027954102 L 1.000001192092896 46.7963981628418 C 1.000001192092896 49.45041656494141 1.474501252174377 52.04690551757812 2.410321235656738 54.51374816894531 C 3.315091133117676 56.89880752563477 4.626741409301758 59.10367584228516 6.308821201324463 61.0671272277832 C 9.694781303405762 65.01947021484375 14.40384101867676 67.73499298095703 19.56825065612793 68.71342468261719 C 21.01947212219238 68.98793029785156 22.51032066345215 69.12710571289062 23.9994010925293 69.12710571289062 M 7.001923084259033 45.53374099731445 C 7.001987934112549 45.52029800415039 7.002189636230469 45.50661849975586 7.002456188201904 45.49165344238281 L 7.005751132965088 45.23020553588867 L 7.009679794311523 45.22225952148438 C 7.113712787628174 42.25126647949219 8.043671607971191 39.40055084228516 9.710306167602539 36.92127227783203 L 8.763101577758789 36.0129280090332 L 23.99939155578613 13.19980621337891 L 39.23662948608398 36.01289749145508 L 38.28941345214844 36.92125701904297 C 39.99811935424805 39.46271133422852 40.93061828613281 42.38941955566406 40.99562454223633 45.43973541259766 C 40.99671936035156 45.47104644775391 40.99761199951172 45.50234985351562 40.99777603149414 45.53364562988281 C 40.9985237121582 45.56220626831055 40.99870300292969 45.59212493896484 40.99870300292969 45.62541580200195 L 40.9990119934082 45.6441764831543 C 40.99933242797852 45.66175842285156 40.99959945678711 45.67933654785156 40.99959945678711 45.69659805297852 L 40.99959945678711 45.78120803833008 C 40.99959945678711 47.73007583618164 40.64627075195312 49.6371955871582 39.94942092895508 51.44957733154297 C 39.27696228027344 53.19852828979492 38.30314254760742 54.81414794921875 37.05499267578125 56.25156784057617 C 34.55197143554688 59.13418579101562 31.07376098632812 61.11410522460938 27.26120185852051 61.82656478881836 C 25.12822151184082 62.22540664672852 22.8705005645752 62.22538375854492 20.73768043518066 61.82658767700195 C 16.92540168762207 61.11407852172852 13.44747161865234 59.1341552734375 10.9445915222168 56.25155639648438 C 9.696491241455078 54.81412506103516 8.722691535949707 53.19850540161133 8.050251007080078 51.44957733154297 C 7.353421211242676 49.63720703125 7.000101089477539 47.72979736328125 7.000101089477539 45.78030776977539 L 7.000101089477539 45.69659805297852 C 7.000101089477539 45.67883682250977 7.00037145614624 45.66111755371094 7.000730991363525 45.64242553710938 L 7.001001358032227 45.62009811401367 C 7.001001358032227 45.59130859375 7.001160144805908 45.56252670288086 7.001923084259033 45.53374099731445 M 23.9994010925293 70.12710571289062 C 22.4481315612793 70.12710571289062 20.89475059509277 69.98206329345703 19.38240051269531 69.69600677490234 C 13.99529075622559 68.67538452148438 9.08263111114502 65.84197998046875 5.54940128326416 61.71771621704102 C 3.79193115234375 59.66628646850586 2.421211242675781 57.36185836791992 1.47533118724823 54.86843490600586 C 0.4963712394237518 52.28786849975586 1.226806602971919e-06 49.57203674316406 1.226806602971919e-06 46.7963981628418 L 1.226806602971919e-06 46.66859817504883 C 0.0009012268274091184 46.63169479370117 0.0009012268274091184 46.59659576416016 0.0009012268274091184 46.56060791015625 L 0.0009012268274091184 46.55159759521484 C 0.001331226783804595 46.53457641601562 0.001551226829178631 46.51775741577148 0.001771226758137345 46.50105667114258 C 0.002021226799115539 46.48072814941406 0.002251226920634508 46.46305847167969 0.00270122685469687 46.44540786743164 L 0.00270122685469687 46.43460845947266 C 0.003681226866319776 46.3936653137207 0.00450122682377696 46.35914611816406 0.00450122682377696 46.322998046875 L 0.005401226691901684 46.31391525268555 C 0.006011226680129766 46.2627067565918 0.00742122670635581 46.21058654785156 0.008831227198243141 46.15873718261719 L 0.0108012268319726 46.08268737792969 C 0.1556412279605865 41.40245819091797 1.721671223640442 36.92656707763672 4.53960132598877 33.13890838623047 L 3.090601205825806 31.73040580749512 L 23.99941062927246 6.671142728009727e-06 L 44.90909957885742 31.73040580749512 L 43.46010208129883 33.13890838623047 C 46.32873153686523 36.99358749389648 47.89660263061523 41.55115509033203 47.99430084228516 46.31760787963867 L 47.99700164794922 46.44449615478516 C 47.99745178222656 46.46260833740234 47.9976806640625 46.48072814941406 47.99790191650391 46.49895477294922 C 47.99814987182617 46.51869583129883 47.99837112426758 46.53594589233398 47.99880218505859 46.55339813232422 L 47.99880218505859 46.55970764160156 C 47.99880218505859 46.59570693969727 47.99880218505859 46.63169479370117 47.99970245361328 46.66859817504883 L 47.99970245361328 46.79549789428711 C 47.99970245361328 49.5717658996582 47.50333023071289 52.28789520263672 46.52436065673828 54.86843490600586 C 45.57847213745117 57.36184692382812 44.20772171020508 59.66627502441406 42.45019149780273 61.71771621704102 C 38.91683959960938 65.84197998046875 34.00390243530273 68.67538452148438 28.61640167236328 69.69600677490234 C 27.10405158996582 69.98206329345703 25.5506706237793 70.12710571289062 23.9994010925293 70.12710571289062 Z M 23.9994010925293 15.00030708312988 L 10.06020164489746 35.87130737304688 L 11.02590084075928 36.79739761352539 C 9.148051261901855 39.28815841674805 8.104201316833496 42.23148727416992 8.007301330566406 45.31050491333008 C 8.005531311035156 45.36093521118164 8.004631042480469 45.41132736206055 8.003750801086426 45.46090698242188 C 8.003701210021973 45.46553802490234 8.003671646118164 45.46805572509766 8.002811431884766 45.46979522705078 L 8.002350807189941 45.50625610351562 C 8.002111434936523 45.51943588256836 8.001901626586914 45.53106689453125 8.001901626586914 45.54269790649414 L 8.001901626586914 45.54990768432617 C 8.001001358032227 45.57330703735352 8.001001358032227 45.59669494628906 8.001001358032227 45.62009811401367 L 8.001001358032227 45.62550735473633 C 8.001001358032227 45.63777542114258 8.000771522521973 45.64979553222656 8.000541687011719 45.66171646118164 C 8.000310897827148 45.6737060546875 8.000101089477539 45.68513488769531 8.000101089477539 45.69659805297852 L 8.000101089477539 45.78030776977539 C 8.000101089477539 47.60661697387695 8.331010818481445 49.39329528808594 8.983641624450684 51.0906982421875 C 9.614231109619141 52.73078536987305 10.52804088592529 54.24656677246094 11.69967079162598 55.59592819213867 C 14.05514144897461 58.30874633789062 17.33015060424805 60.17240524291992 20.92140197753906 60.84360504150391 C 22.9334602355957 61.21982574462891 25.06534004211426 61.21982574462891 27.07740211486816 60.84360504150391 C 30.66903114318848 60.17242813110352 33.94432067871094 58.30876541137695 36.29992294311523 55.59592819213867 C 37.47161102294922 54.24655532836914 38.38544082641602 52.73077774047852 39.01604080200195 51.0906982421875 C 39.66868209838867 49.39328765869141 39.99959945678711 47.60691833496094 39.99959945678711 45.78120803833008 L 39.99959945678711 45.69659805297852 C 39.99959945678711 45.68539810180664 39.9993896484375 45.67398834228516 39.99917984008789 45.66257476806641 C 39.99892044067383 45.64912796020508 39.99870300292969 45.6371955871582 39.99870300292969 45.62550735473633 C 39.99870300292969 45.59759521484375 39.99870300292969 45.57330703735352 39.997802734375 45.54989624023438 L 39.997802734375 45.54359817504883 C 39.997802734375 45.51841735839844 39.99690246582031 45.49322509765625 39.99600219726562 45.46803665161133 C 39.93059158325195 42.33155822753906 38.88553237915039 39.33331680297852 36.97380065917969 36.79739761352539 L 37.93950271606445 35.87130737304688 L 23.9994010925293 15.00030708312988 Z" stroke="none" fill="#313131"/>
  </g>
</svg>
